<svg width="25" height="24" viewBox="0 0 25 24" fill="none" xmlns="http://www.w3.org/2000/svg">
<path d="M24.4992 12.27C24.4992 11.48 24.4277 10.73 24.3051 10H12.7598V14.51H19.3702C19.0739 15.99 18.2055 17.24 16.9181 18.09V21.09H20.8619C23.171 19 24.4992 15.92 24.4992 12.27Z" fill="#4285F4"/>
<path d="M12.7609 24C16.0712 24 18.8401 22.92 20.8631 21.09L16.9193 18.09C15.8158 18.81 14.4161 19.25 12.7609 19.25C9.56293 19.25 6.8554 17.14 5.88477 14.29H1.81836V17.38C3.83113 21.3 7.96906 24 12.7609 24Z" fill="#34A853"/>
<path d="M5.88442 14.29C5.62899 13.57 5.49617 12.8 5.49617 12C5.49617 11.2 5.63921 10.43 5.88442 9.71V6.62H1.81801C0.980204 8.24 0.5 10.06 0.5 12C0.5 13.94 0.980204 15.76 1.81801 17.38L5.88442 14.29Z" fill="#FBBC05"/>
<path d="M12.7609 4.75C14.5693 4.75 16.1836 5.36 17.4608 6.55L20.955 3.13C18.8401 1.19 16.0712 0 12.7609 0C7.96906 0 3.83113 2.7 1.81836 6.62L5.88477 9.71C6.8554 6.86 9.56293 4.75 12.7609 4.75Z" fill="#EA4335"/>
</svg>
