<svg width="174" height="145" viewBox="0 0 174 145" fill="none" xmlns="http://www.w3.org/2000/svg">
<path fill-rule="evenodd" clip-rule="evenodd" d="M141.31 5.18868C141.354 2.27893 143.749 -0.0438433 146.659 0.000628068C149.569 0.0450994 151.892 2.43997 151.847 5.34973L151.682 16.1881C151.637 19.0979 149.242 21.4207 146.332 21.3762C143.423 21.3317 141.1 18.9368 141.144 16.0271L141.31 5.18868ZM146.598 4.00017C145.897 3.98946 145.32 4.54894 145.31 5.24981L145.144 16.0882C145.133 16.7891 145.693 17.3659 146.394 17.3766C147.094 17.3874 147.671 16.8279 147.682 16.127L147.848 5.2886C147.858 4.58773 147.299 4.01089 146.598 4.00017ZM152.443 27.0813C152.487 24.1716 154.882 21.8488 157.792 21.8933L168.63 22.0589C171.54 22.1034 173.863 24.4983 173.818 27.408C173.774 30.3178 171.379 32.6406 168.469 32.5961L157.631 32.4304C154.721 32.386 152.398 29.9911 152.443 27.0813ZM157.731 25.8928C157.03 25.8821 156.453 26.4416 156.442 27.1425C156.432 27.8433 156.991 28.4202 157.692 28.4309L168.53 28.5965C169.231 28.6072 169.808 28.0478 169.819 27.3469C169.829 26.646 169.27 26.0692 168.569 26.0585L157.731 25.8928ZM30.3922 35.5269C31.98 29.3345 37.5608 25.0042 43.9535 25.0042H134.048C140.441 25.0042 146.021 29.3345 147.609 35.5269L157.328 73.4311C157.798 75.262 157.891 77.169 157.604 79.0371L151.958 115.737C150.907 122.567 145.031 127.608 138.121 127.608H53.9224C49.743 137.815 39.7111 145.005 28 145.005C12.536 145.005 0 132.468 0 117.004C0 103.625 9.38427 92.4371 21.9298 89.6641L20.3695 78.9774C20.1017 77.1428 20.2009 75.2734 20.6614 73.4774L30.3922 35.5269ZM25.8874 89.0829C26.5848 89.0308 27.2893 89.0044 28 89.0044C43.464 89.0044 56 101.54 56 117.004C56 119.279 55.7287 121.491 55.2167 123.608H138.121C143.056 123.608 147.254 120.007 148.004 115.129L153.651 78.4289L153.662 78.3515L153.669 78.3051H123.845L115.391 90.1406C112.763 93.8197 108.52 96.0033 103.999 96.0033H75.2645C70.7432 96.0033 66.5002 93.8198 63.8723 90.1406L55.4184 78.3051H24.3142L24.3276 78.3995L25.8874 89.0829ZM143.735 36.5205L153.423 74.3051H140.301V73.0422V72.9281V62.3996V60.2875V47.6449C140.301 42.122 135.824 37.6448 130.301 37.6448H47.6972C42.1744 37.6448 37.6972 42.122 37.6972 47.6449V60.2875V62.3996V72.9281V73.0422V74.3051H24.5785L34.2669 36.5204C35.401 32.0973 39.3873 29.0042 43.9535 29.0042H134.048C138.614 29.0042 142.6 32.0973 143.735 36.5205ZM136.301 52.2867C134.63 51.0313 132.552 50.2874 130.301 50.2874H47.6972C45.446 50.2874 43.3686 51.0313 41.6972 52.2867V47.6449C41.6972 44.3311 44.3835 41.6448 47.6972 41.6448H130.301C133.615 41.6448 136.301 44.3311 136.301 47.6449V52.2867ZM41.6972 74.3051H56.4476C57.0935 74.3051 57.6996 74.617 58.0751 75.1426L67.1272 87.8156C69.0043 90.4436 72.035 92.0033 75.2645 92.0033H103.999C107.228 92.0033 110.259 90.4436 112.136 87.8156L121.188 75.1426C121.563 74.617 122.17 74.3051 122.815 74.3051H136.301V73.2317L135.899 71.1268C135.848 70.8598 135.786 70.597 135.715 70.3387C134.748 68.3213 132.687 66.9281 130.301 66.9281H47.6972C44.9366 66.9281 42.6115 68.7925 41.9122 71.3308C41.8789 71.528 41.8512 71.7272 41.8295 71.9284L41.6972 73.1502V74.3051ZM4 117.004C4 103.75 14.7452 93.0044 28 93.0044C41.2548 93.0044 52 103.75 52 117.004C52 130.259 41.2548 141.005 28 141.005C14.7452 141.005 4 130.259 4 117.004ZM23 104.004C23 101.243 25.2386 99.0044 28 99.0044C30.7614 99.0044 33 101.243 33 104.004V116.004C33 118.766 30.7614 121.004 28 121.004C25.2386 121.004 23 118.766 23 116.004V104.004ZM28 103.004C27.4477 103.004 27 103.452 27 104.004V116.004C27 116.557 27.4477 117.004 28 117.004C28.5523 117.004 29 116.557 29 116.004V104.004C29 103.452 28.5523 103.004 28 103.004ZM28 135.005C25.2386 135.005 23 132.766 23 130.004C23 127.243 25.2386 125.004 28 125.004C30.7614 125.004 33 127.243 33 130.004C33 132.766 30.7614 135.005 28 135.005ZM27 130.004C27 130.557 27.4477 131.005 28 131.005C28.5523 131.005 29 130.557 29 130.004C29 129.452 28.5523 129.004 28 129.004C27.4477 129.004 27 129.452 27 130.004Z" fill="#949494"/>
</svg>
